# xmcd
#
# Track frame offsets:
#	150
#	27797
#	34112
#	64909
#	90688
#	113530
#	132199
#	144153
#	162191
#	174694
#	196780
#	217332
#	235903
#	248842
#	264452
#	290585
#	309095
#	329982
#
# Disc length: 4715 seconds
#
# Revision: 0
# Processed by: cddbd v1.5.2PL0 Copyright (c) Steve Scherf et al.
# Submitted via: audiograbber 1.83.01
#
DISCID=05126912
DTITLE=Alex Harvey  - The Last of the Teenage Idols The High Lights
DYEAR=1900
DGENRE=
TTITLE0=Give Me Compliments to teh Chef
TTITLE1=Fanfare
TTITLE2=Faith the Healer
TTITLE3=Tomahawk Kid
TTITLE4=Delilah
TTITLE5=Sergant Fury
TTITLE6=I Wanna Have You Back
TTITLE7=Jungle Jenny
TTITLE8=Runaway
TTITLE9=School's Out
TTITLE10=Goodnight Irene
TTITLE11=Gamblin' Bar Ballroom Blues
TTITLE12=Crasy Horses
TTITLE13=Cheek To Cheek
TTITLE14=Dance To Your Daddy
TTITLE15=Sultan's Choise
TTITLE16=Boston Tea Party
TTITLE17=Amos Moses
EXTD=
EXTT0=
EXTT1=
EXTT2=
EXTT3=
EXTT4=
EXTT5=
EXTT6=
EXTT7=
EXTT8=
EXTT9=
EXTT10=
EXTT11=
EXTT12=
EXTT13=
EXTT14=
EXTT15=
EXTT16=
EXTT17=
PLAYORDER=
